<?xml version="1.0" standalone="no"?>
<!DOCTYPE svg PUBLIC "-//W3C//DTD SVG 20010904//EN"
 "http://www.w3.org/TR/2001/REC-SVG-20010904/DTD/svg10.dtd">
<svg version="1.0" xmlns="http://www.w3.org/2000/svg"
 width="256.000000pt" height="256.000000pt" viewBox="0 0 256.000000 256.000000"
 preserveAspectRatio="xMidYMid meet">
<metadata>
Created by potrace 1.14, written by Peter Selinger 2001-2017
</metadata>
<g transform="translate(0.000000,256.000000) scale(0.100000,-0.100000)"
fill="#000000" stroke="none">
<path d="M850 2547 c0 -6 7 -37 15 -67 8 -30 15 -58 15 -62 0 -4 -26 -20 -57
-36 -309 -153 -544 -443 -627 -771 -17 -65 -22 -100 -31 -196 -7 -76 -6 -74
-114 -168 l-44 -37 29 -1 c119 -2 134 -9 134 -65 0 -42 43 -204 74 -280 82
-200 222 -382 395 -511 72 -55 270 -163 298 -163 12 0 67 -108 79 -157 9 -36
18 -28 46 40 29 69 29 69 128 52 76 -13 241 -12 330 1 273 41 527 174 713 375
80 86 78 85 195 93 35 2 65 6 68 9 3 2 -6 11 -18 19 -13 9 -38 29 -57 46 l-35
30 41 84 c132 268 159 571 77 857 -26 92 -86 226 -135 302 l-29 46 16 69 c9
38 18 82 21 99 5 29 4 29 -14 12 -11 -9 -22 -17 -26 -17 -3 0 -23 -11 -43 -25
l-37 -25 -56 56 c-77 77 -191 162 -286 211 -110 56 -203 89 -340 119 -110 24
-289 24 -420 1 -61 -11 -121 -20 -135 -20 -14 0 -58 21 -97 46 -40 26 -73 41
-73 34z m645 -492 c113 -23 209 -65 300 -130 35 -25 66 -49 69 -54 3 -5 -20
-26 -52 -46 -31 -21 -52 -39 -47 -41 6 -1 55 -12 110 -24 117 -26 129 -36 175
-147 76 -183 80 -414 10 -579 l-20 -46 -49 41 c-54 45 -65 50 -57 24 3 -10 8
-63 11 -118 l7 -100 -59 -57 c-114 -112 -207 -164 -373 -209 -63 -17 -263 -21
-257 -6 38 94 46 117 39 117 -4 0 -51 -19 -105 -41 l-98 -41 -45 17 c-100 38
-238 149 -316 255 -52 71 -99 176 -122 271 l-6 27 72 -5 71 -5 -80 91 -79 91
8 67 c25 207 152 414 326 529 62 41 63 41 82 -43 l12 -55 61 100 c64 105 68
108 147 119 19 3 37 7 39 9 6 5 191 -3 226 -11z"/>
<path d="M892 1534 c-31 -23 14 -28 253 -29 259 -1 275 0 275 21 0 17 13 16
-274 18 -162 1 -243 -2 -254 -10z"/>
<path d="M886 1372 c-18 -29 15 -31 429 -29 366 2 420 4 420 17 0 13 -55 15
-422 18 -232 1 -424 -1 -427 -6z"/>
<path d="M890 1210 c-42 -26 14 -30 346 -28 293 3 339 5 339 18 0 13 -45 15
-335 17 -189 1 -342 -2 -350 -7z"/>
<path d="M889 1043 c-7 -7 -6 -14 3 -19 13 -9 798 -14 831 -6 10 3 17 12 15
20 -3 15 -48 16 -421 17 -306 0 -421 -3 -428 -12z"/>
</g>
</svg>
